<svg fill="none" xmlns="http://www.w3.org/2000/svg" viewBox="0 0 20 21"><path d="M17.384 4.489c-.26-.31-.69-.4-1.07-.28-.81.27-1.73.2-2.53-.25-.8-.46-1.32-1.22-1.5-2.05-.09-.4-.39-.73-.79-.79-1-.16-2.04-.16-3.06.01-.4.07-.69.39-.78.79-.18.84-.69 1.6-1.49 2.07-.8.47-1.72.53-2.53.27-.38-.12-.81-.03-1.07.28-.65.81-1.16 1.71-1.51 2.66-.14.38 0 .8.3 1.06a3.21 3.21 0 0 1 1.04 2.33c0 .93-.4 1.75-1.03 2.33-.3.27-.43.69-.29 1.06.18.47.4.94.66 1.39.26.45.56.87.88 1.26.26.31.69.4 1.07.28.81-.27 1.73-.2 2.53.25.8.46 1.32 1.22 1.5 2.05.09.39.38.72.78.78 1.01.16 2.04.16 3.06-.01.4-.07.69-.39.78-.79.18-.84.69-1.6 1.49-2.07.8-.47 1.72-.53 2.53-.27.39.12.82.03 1.07-.29.65-.81 1.16-1.71 1.52-2.66.14-.38 0-.8-.3-1.06-.64-.57-1.04-1.4-1.05-2.32 0-.93.4-1.75 1.03-2.33.3-.27.43-.69.29-1.06-.18-.47-.4-.94-.66-1.39-.25-.45-.55-.86-.87-1.25Z" stroke="currentColor" stroke-width="1.5" stroke-miterlimit="10" stroke-linecap="round" stroke-linejoin="round"/><path d="M10.005 13.519a2.96 2.96 0 1 0 0-5.92 2.96 2.96 0 0 0 0 5.92Z" stroke="currentColor" stroke-width="1.5" stroke-miterlimit="10" stroke-linecap="round" stroke-linejoin="round"/></svg>
